<svg xmlns="http://www.w3.org/2000/svg" width="16" height="16">
  <path d="path2"
     d="M 6 1 L 6 3 L 11 3 C 12.108 3 13 3.892 13 5 L 13 7 L 6 7 C 3.784 7 2 8.784 2 11 C 2 13.216 3.784 15 6 15 L 10 15 L 10 13 L 6 13 C 4.892 13 4 12.108 4 11 C 4 9.892 4.892 9 6 9 L 13 9 L 13 10 L 15 10 L 15 5 C 15 2.784 13.216 1 11 1 L 6 1 z M 11 11 L 11 16 L 16 16 L 16 11 L 11 11 z M 12 12 L 13 12 L 13 13 L 14 13 L 14 12 L 15 12 L 15 14 L 14 14 L 14 15 L 13 15 L 13 14 L 12 14 L 12 12 z " fill="#c0bfbc" />
</svg>
